# xmcd
#
# Track frame offsets:
#	150
#	20286
#	43645
#	66039
#	85241
#	107362
#	127174
#	149509
#	180009
#	207167
#	220160
#	241056
#	256147
#	286762
#	318432
#
# Disc length: 4510 seconds
#
# Revision: 1
# Processed by: cddbd v1.5.1PL2 Copyright (c) Steve Scherf et al.
# Submitted via: audiograbber 1.83.01
#
DISCID=c8119c0f
DTITLE=Tommy McCoy - Live In The UK
DYEAR=1900
DGENRE=Blues
TTITLE0=Blues Thing
TTITLE1=A Man Who Cried
TTITLE2=Ludella
TTITLE3=They Killed That Man
TTITLE4=Lay My Demons Down
TTITLE5=Look For Me In New Orleans
TTITLE6=56' Chevy
TTITLE7=Bitter Soul To Heal
TTITLE8=Spanish Moon
TTITLE9=Money, That's What They Want
TTITLE10=Hey Now
TTITLE11=Bricks In My Pillow
TTITLE12=Love N' Money
TTITLE13=Money
TTITLE14=Talking To Myself
EXTD=
EXTT0=
EXTT1=
EXTT2=
EXTT3=
EXTT4=
EXTT5=
EXTT6=
EXTT7=
EXTT8=
EXTT9=
EXTT10=
EXTT11=
EXTT12=
EXTT13=
EXTT14=
PLAYORDER=
